<svg xmlns="http://www.w3.org/2000/svg" xmlns:xlink="http://www.w3.org/1999/xlink" width="150" zoomAndPan="magnify" viewBox="0 0 112.5 43.499998" height="58" preserveAspectRatio="xMidYMid meet" version="1.2"><defs/><g id="991b2808f1"><g style="fill:#000000;fill-opacity:1;"><g transform="translate(8.596386, 28.464248)"><path style="stroke:none" d="M 11.859375 -15.25 L 11.515625 -12.484375 L 7.75 -12.484375 L 7.75 0 L 4.140625 0 L 4.140625 -12.484375 L 0.203125 -12.484375 L 0.203125 -15.25 Z M 11.859375 -15.25 "/></g></g><g style="fill:#000000;fill-opacity:1;"><g transform="translate(20.485339, 28.464248)"><path style="stroke:none" d="M 8.21875 -12.0625 C 9.226562 -12.0625 10.019531 -11.753906 10.59375 -11.140625 C 11.164062 -10.523438 11.453125 -9.660156 11.453125 -8.546875 L 11.453125 0 L 7.96875 0 L 7.96875 -7.953125 C 7.96875 -8.535156 7.867188 -8.941406 7.671875 -9.171875 C 7.484375 -9.398438 7.21875 -9.515625 6.875 -9.515625 C 6.164062 -9.515625 5.488281 -9.015625 4.84375 -8.015625 L 4.84375 0 L 1.359375 0 L 1.359375 -16.328125 L 4.84375 -16.6875 L 4.84375 -10.4375 C 5.320312 -10.976562 5.832031 -11.382812 6.375 -11.65625 C 6.925781 -11.925781 7.539062 -12.0625 8.21875 -12.0625 Z M 8.21875 -12.0625 "/></g></g><g style="fill:#000000;fill-opacity:1;"><g transform="translate(33.188906, 28.464248)"><path style="stroke:none" d="M 4.84375 -11.6875 L 4.84375 0 L 1.359375 0 L 1.359375 -11.6875 Z M 3.078125 -17.859375 C 3.679688 -17.859375 4.175781 -17.671875 4.5625 -17.296875 C 4.957031 -16.921875 5.15625 -16.445312 5.15625 -15.875 C 5.15625 -15.300781 4.957031 -14.828125 4.5625 -14.453125 C 4.175781 -14.078125 3.679688 -13.890625 3.078125 -13.890625 C 2.484375 -13.890625 1.992188 -14.078125 1.609375 -14.453125 C 1.222656 -14.828125 1.03125 -15.300781 1.03125 -15.875 C 1.03125 -16.445312 1.222656 -16.921875 1.609375 -17.296875 C 1.992188 -17.671875 2.484375 -17.859375 3.078125 -17.859375 Z M 3.078125 -17.859375 "/></g></g><g style="fill:#000000;fill-opacity:1;"><g transform="translate(39.397577, 28.464248)"><path style="stroke:none" d="M 10.65625 -3.390625 C 10.65625 -2.953125 10.71875 -2.628906 10.84375 -2.421875 C 10.96875 -2.210938 11.171875 -2.054688 11.453125 -1.953125 L 10.71875 0.3125 C 10 0.25 9.410156 0.09375 8.953125 -0.15625 C 8.503906 -0.414062 8.15625 -0.828125 7.90625 -1.390625 C 7.144531 -0.210938 5.96875 0.375 4.375 0.375 C 3.21875 0.375 2.296875 0.0351562 1.609375 -0.640625 C 0.921875 -1.316406 0.578125 -2.195312 0.578125 -3.28125 C 0.578125 -4.5625 1.046875 -5.535156 1.984375 -6.203125 C 2.921875 -6.878906 4.273438 -7.21875 6.046875 -7.21875 L 7.25 -7.21875 L 7.25 -7.734375 C 7.25 -8.421875 7.097656 -8.890625 6.796875 -9.140625 C 6.503906 -9.398438 5.992188 -9.53125 5.265625 -9.53125 C 4.878906 -9.53125 4.414062 -9.472656 3.875 -9.359375 C 3.332031 -9.253906 2.773438 -9.109375 2.203125 -8.921875 L 1.40625 -11.203125 C 2.144531 -11.484375 2.898438 -11.695312 3.671875 -11.84375 C 4.441406 -11.988281 5.15625 -12.0625 5.8125 -12.0625 C 7.488281 -12.0625 8.710938 -11.71875 9.484375 -11.03125 C 10.265625 -10.34375 10.65625 -9.304688 10.65625 -7.921875 Z M 5.390625 -2.109375 C 6.179688 -2.109375 6.800781 -2.484375 7.25 -3.234375 L 7.25 -5.3125 L 6.390625 -5.3125 C 5.597656 -5.3125 5.003906 -5.171875 4.609375 -4.890625 C 4.222656 -4.609375 4.03125 -4.175781 4.03125 -3.59375 C 4.03125 -3.125 4.148438 -2.757812 4.390625 -2.5 C 4.628906 -2.238281 4.960938 -2.109375 5.390625 -2.109375 Z M 5.390625 -2.109375 "/></g></g><g style="fill:#000000;fill-opacity:1;"><g transform="translate(51.242464, 28.464248)"><path style="stroke:none" d="M 12.125 -11 C 11.363281 -10.695312 10.242188 -10.546875 8.765625 -10.546875 C 9.523438 -10.222656 10.082031 -9.828125 10.4375 -9.359375 C 10.789062 -8.890625 10.96875 -8.28125 10.96875 -7.53125 C 10.96875 -6.78125 10.769531 -6.109375 10.375 -5.515625 C 9.976562 -4.921875 9.40625 -4.453125 8.65625 -4.109375 C 7.914062 -3.773438 7.046875 -3.609375 6.046875 -3.609375 C 5.578125 -3.609375 5.132812 -3.65625 4.71875 -3.75 C 4.59375 -3.6875 4.5 -3.59375 4.4375 -3.46875 C 4.375 -3.34375 4.34375 -3.210938 4.34375 -3.078125 C 4.34375 -2.859375 4.425781 -2.6875 4.59375 -2.5625 C 4.757812 -2.4375 5.097656 -2.375 5.609375 -2.375 L 7.375 -2.375 C 8.269531 -2.375 9.054688 -2.226562 9.734375 -1.9375 C 10.410156 -1.644531 10.929688 -1.238281 11.296875 -0.71875 C 11.660156 -0.207031 11.84375 0.367188 11.84375 1.015625 C 11.84375 2.234375 11.316406 3.179688 10.265625 3.859375 C 9.222656 4.546875 7.707031 4.890625 5.71875 4.890625 C 4.300781 4.890625 3.179688 4.738281 2.359375 4.4375 C 1.535156 4.132812 0.957031 3.710938 0.625 3.171875 C 0.289062 2.628906 0.125 1.945312 0.125 1.125 L 3.265625 1.125 C 3.265625 1.476562 3.332031 1.753906 3.46875 1.953125 C 3.601562 2.160156 3.851562 2.316406 4.21875 2.421875 C 4.59375 2.523438 5.125 2.578125 5.8125 2.578125 C 6.769531 2.578125 7.429688 2.460938 7.796875 2.234375 C 8.160156 2.003906 8.34375 1.675781 8.34375 1.25 C 8.34375 0.894531 8.203125 0.613281 7.921875 0.40625 C 7.640625 0.207031 7.222656 0.109375 6.671875 0.109375 L 4.96875 0.109375 C 3.769531 0.109375 2.875 -0.101562 2.28125 -0.53125 C 1.6875 -0.96875 1.390625 -1.523438 1.390625 -2.203125 C 1.390625 -2.628906 1.515625 -3.039062 1.765625 -3.4375 C 2.015625 -3.84375 2.351562 -4.179688 2.78125 -4.453125 C 2.039062 -4.847656 1.503906 -5.3125 1.171875 -5.84375 C 0.847656 -6.382812 0.6875 -7.035156 0.6875 -7.796875 C 0.6875 -9.097656 1.15625 -10.132812 2.09375 -10.90625 C 3.03125 -11.675781 4.269531 -12.0625 5.8125 -12.0625 C 6.988281 -12.03125 7.984375 -12.144531 8.796875 -12.40625 C 9.609375 -12.675781 10.445312 -13.066406 11.3125 -13.578125 Z M 5.90625 -9.78125 C 5.351562 -9.78125 4.921875 -9.601562 4.609375 -9.25 C 4.296875 -8.90625 4.140625 -8.4375 4.140625 -7.84375 C 4.140625 -7.207031 4.296875 -6.71875 4.609375 -6.375 C 4.921875 -6.03125 5.351562 -5.859375 5.90625 -5.859375 C 6.476562 -5.859375 6.910156 -6.023438 7.203125 -6.359375 C 7.503906 -6.703125 7.65625 -7.207031 7.65625 -7.875 C 7.65625 -9.144531 7.070312 -9.78125 5.90625 -9.78125 Z M 5.90625 -9.78125 "/></g></g><g style="fill:#000000;fill-opacity:1;"><g transform="translate(62.889167, 28.464248)"><path style="stroke:none" d="M 6.421875 -12.0625 C 8.210938 -12.0625 9.613281 -11.515625 10.625 -10.421875 C 11.644531 -9.328125 12.15625 -7.796875 12.15625 -5.828125 C 12.15625 -4.585938 11.921875 -3.5 11.453125 -2.5625 C 10.992188 -1.632812 10.332031 -0.910156 9.46875 -0.390625 C 8.613281 0.117188 7.597656 0.375 6.421875 0.375 C 4.648438 0.375 3.253906 -0.171875 2.234375 -1.265625 C 1.210938 -2.359375 0.703125 -3.890625 0.703125 -5.859375 C 0.703125 -7.109375 0.929688 -8.195312 1.390625 -9.125 C 1.859375 -10.0625 2.519531 -10.785156 3.375 -11.296875 C 4.238281 -11.804688 5.253906 -12.0625 6.421875 -12.0625 Z M 6.421875 -9.515625 C 5.722656 -9.515625 5.195312 -9.21875 4.84375 -8.625 C 4.488281 -8.03125 4.3125 -7.109375 4.3125 -5.859375 C 4.3125 -4.578125 4.484375 -3.640625 4.828125 -3.046875 C 5.171875 -2.460938 5.703125 -2.171875 6.421875 -2.171875 C 7.128906 -2.171875 7.660156 -2.46875 8.015625 -3.0625 C 8.367188 -3.664062 8.546875 -4.585938 8.546875 -5.828125 C 8.546875 -7.109375 8.367188 -8.039062 8.015625 -8.625 C 7.671875 -9.21875 7.140625 -9.515625 6.421875 -9.515625 Z M 6.421875 -9.515625 "/></g></g><g style="fill:#000000;fill-opacity:1;"><g transform="translate(77.588984, 20.171389)"><path style="stroke:none" d="M 1.140625 -3.234375 C 1.628906 -3.234375 2.019531 -3.117188 2.3125 -2.890625 C 2.613281 -2.671875 2.765625 -2.253906 2.765625 -1.640625 C 2.765625 -1.035156 2.613281 -0.609375 2.3125 -0.359375 C 2.019531 -0.117188 1.664062 0 1.25 0 L 0.46875 0 L 0.46875 -3.234375 Z M 0.921875 -2.890625 L 0.921875 -0.359375 L 1.28125 -0.359375 C 1.582031 -0.359375 1.828125 -0.445312 2.015625 -0.625 C 2.203125 -0.8125 2.296875 -1.148438 2.296875 -1.640625 C 2.296875 -1.984375 2.242188 -2.242188 2.140625 -2.421875 C 2.046875 -2.609375 1.921875 -2.734375 1.765625 -2.796875 C 1.617188 -2.859375 1.445312 -2.890625 1.25 -2.890625 Z M 0.921875 -2.890625 "/></g></g><g style="fill:#000000;fill-opacity:1;"><g transform="translate(80.615536, 20.171389)"><path style="stroke:none" d="M 2.3125 -1.3125 C 2.3125 -1.238281 2.3125 -1.164062 2.3125 -1.09375 L 0.734375 -1.09375 C 0.742188 -0.820312 0.804688 -0.617188 0.921875 -0.484375 C 1.046875 -0.359375 1.203125 -0.296875 1.390625 -0.296875 C 1.515625 -0.296875 1.625 -0.3125 1.71875 -0.34375 C 1.820312 -0.382812 1.929688 -0.441406 2.046875 -0.515625 L 2.234375 -0.25 C 1.960938 -0.0390625 1.671875 0.0625 1.359375 0.0625 C 1.015625 0.0625 0.742188 -0.0507812 0.546875 -0.28125 C 0.359375 -0.507812 0.265625 -0.820312 0.265625 -1.21875 C 0.265625 -1.46875 0.304688 -1.691406 0.390625 -1.890625 C 0.472656 -2.097656 0.59375 -2.253906 0.75 -2.359375 C 0.90625 -2.472656 1.085938 -2.53125 1.296875 -2.53125 C 1.628906 -2.53125 1.878906 -2.421875 2.046875 -2.203125 C 2.222656 -1.992188 2.3125 -1.695312 2.3125 -1.3125 Z M 1.890625 -1.4375 C 1.890625 -1.6875 1.835938 -1.875 1.734375 -2 C 1.640625 -2.125 1.5 -2.1875 1.3125 -2.1875 C 0.957031 -2.1875 0.765625 -1.925781 0.734375 -1.40625 L 1.890625 -1.40625 Z M 1.890625 -1.4375 "/></g></g><g style="fill:#000000;fill-opacity:1;"><g transform="translate(83.176822, 20.171389)"><path style="stroke:none" d="M 1.125 -2.53125 C 1.289062 -2.53125 1.441406 -2.503906 1.578125 -2.453125 C 1.710938 -2.410156 1.84375 -2.34375 1.96875 -2.25 L 1.78125 -1.984375 C 1.664062 -2.054688 1.554688 -2.109375 1.453125 -2.140625 C 1.347656 -2.171875 1.242188 -2.1875 1.140625 -2.1875 C 0.992188 -2.1875 0.878906 -2.15625 0.796875 -2.09375 C 0.710938 -2.039062 0.671875 -1.960938 0.671875 -1.859375 C 0.671875 -1.765625 0.707031 -1.6875 0.78125 -1.625 C 0.863281 -1.570312 1.003906 -1.519531 1.203125 -1.46875 C 1.484375 -1.394531 1.691406 -1.296875 1.828125 -1.171875 C 1.960938 -1.054688 2.03125 -0.898438 2.03125 -0.703125 C 2.03125 -0.453125 1.9375 -0.257812 1.75 -0.125 C 1.5625 0 1.328125 0.0625 1.046875 0.0625 C 0.671875 0.0625 0.363281 -0.046875 0.125 -0.265625 L 0.34375 -0.53125 C 0.550781 -0.375 0.785156 -0.296875 1.046875 -0.296875 C 1.203125 -0.296875 1.328125 -0.328125 1.421875 -0.390625 C 1.523438 -0.460938 1.578125 -0.554688 1.578125 -0.671875 C 1.578125 -0.753906 1.554688 -0.820312 1.515625 -0.875 C 1.484375 -0.925781 1.425781 -0.96875 1.34375 -1 C 1.257812 -1.039062 1.132812 -1.085938 0.96875 -1.140625 C 0.707031 -1.203125 0.515625 -1.289062 0.390625 -1.40625 C 0.273438 -1.519531 0.21875 -1.671875 0.21875 -1.859375 C 0.21875 -1.984375 0.253906 -2.097656 0.328125 -2.203125 C 0.410156 -2.304688 0.519531 -2.382812 0.65625 -2.4375 C 0.789062 -2.5 0.945312 -2.53125 1.125 -2.53125 Z M 1.125 -2.53125 "/></g></g><g style="fill:#000000;fill-opacity:1;"><g transform="translate(85.371539, 20.171389)"><path style="stroke:none" d="M 2.3125 -1.3125 C 2.3125 -1.238281 2.3125 -1.164062 2.3125 -1.09375 L 0.734375 -1.09375 C 0.742188 -0.820312 0.804688 -0.617188 0.921875 -0.484375 C 1.046875 -0.359375 1.203125 -0.296875 1.390625 -0.296875 C 1.515625 -0.296875 1.625 -0.3125 1.71875 -0.34375 C 1.820312 -0.382812 1.929688 -0.441406 2.046875 -0.515625 L 2.234375 -0.25 C 1.960938 -0.0390625 1.671875 0.0625 1.359375 0.0625 C 1.015625 0.0625 0.742188 -0.0507812 0.546875 -0.28125 C 0.359375 -0.507812 0.265625 -0.820312 0.265625 -1.21875 C 0.265625 -1.46875 0.304688 -1.691406 0.390625 -1.890625 C 0.472656 -2.097656 0.59375 -2.253906 0.75 -2.359375 C 0.90625 -2.472656 1.085938 -2.53125 1.296875 -2.53125 C 1.628906 -2.53125 1.878906 -2.421875 2.046875 -2.203125 C 2.222656 -1.992188 2.3125 -1.695312 2.3125 -1.3125 Z M 1.890625 -1.4375 C 1.890625 -1.6875 1.835938 -1.875 1.734375 -2 C 1.640625 -2.125 1.5 -2.1875 1.3125 -2.1875 C 0.957031 -2.1875 0.765625 -1.925781 0.734375 -1.40625 L 1.890625 -1.40625 Z M 1.890625 -1.4375 "/></g></g><g style="fill:#000000;fill-opacity:1;"><g transform="translate(87.932826, 20.171389)"><path style="stroke:none" d="M 1.609375 -2.53125 C 1.835938 -2.53125 2.015625 -2.460938 2.140625 -2.328125 C 2.265625 -2.191406 2.328125 -2.007812 2.328125 -1.78125 L 2.328125 0 L 1.90625 0 L 1.90625 -1.71875 C 1.90625 -1.894531 1.867188 -2.019531 1.796875 -2.09375 C 1.734375 -2.164062 1.640625 -2.203125 1.515625 -2.203125 C 1.378906 -2.203125 1.257812 -2.160156 1.15625 -2.078125 C 1.0625 -2.003906 0.96875 -1.898438 0.875 -1.765625 L 0.875 0 L 0.453125 0 L 0.453125 -2.484375 L 0.8125 -2.484375 L 0.859375 -2.109375 C 0.941406 -2.242188 1.046875 -2.347656 1.171875 -2.421875 C 1.304688 -2.492188 1.453125 -2.53125 1.609375 -2.53125 Z M 1.609375 -2.53125 "/></g></g><g style="fill:#000000;fill-opacity:1;"><g transform="translate(90.653899, 20.171389)"><path style="stroke:none" d="M 2.265625 -2.484375 L 1.421875 0 L 0.90625 0 L 0.046875 -2.484375 L 0.515625 -2.484375 L 1.171875 -0.390625 L 1.8125 -2.484375 Z M 2.265625 -2.484375 "/></g></g><g style="fill:#000000;fill-opacity:1;"><g transform="translate(92.947307, 20.171389)"><path style="stroke:none" d="M 1.375 -2.53125 C 1.726562 -2.53125 2 -2.414062 2.1875 -2.1875 C 2.382812 -1.957031 2.484375 -1.640625 2.484375 -1.234375 C 2.484375 -0.984375 2.4375 -0.757812 2.34375 -0.5625 C 2.257812 -0.363281 2.132812 -0.207031 1.96875 -0.09375 C 1.800781 0.0078125 1.601562 0.0625 1.375 0.0625 C 1.019531 0.0625 0.742188 -0.0507812 0.546875 -0.28125 C 0.359375 -0.519531 0.265625 -0.835938 0.265625 -1.234375 C 0.265625 -1.492188 0.304688 -1.71875 0.390625 -1.90625 C 0.484375 -2.101562 0.613281 -2.253906 0.78125 -2.359375 C 0.945312 -2.472656 1.144531 -2.53125 1.375 -2.53125 Z M 1.375 -2.1875 C 0.945312 -2.1875 0.734375 -1.867188 0.734375 -1.234375 C 0.734375 -0.609375 0.945312 -0.296875 1.375 -0.296875 C 1.800781 -0.296875 2.015625 -0.609375 2.015625 -1.234375 C 2.015625 -1.867188 1.800781 -2.1875 1.375 -2.1875 Z M 1.375 -2.1875 "/></g></g><g style="fill:#000000;fill-opacity:1;"><g transform="translate(95.691884, 20.171389)"><path style="stroke:none" d="M 0.9375 0.0625 C 0.78125 0.0625 0.65625 0.015625 0.5625 -0.078125 C 0.46875 -0.179688 0.421875 -0.316406 0.421875 -0.484375 L 0.421875 -3.46875 L 0.859375 -3.53125 L 0.859375 -0.5 C 0.859375 -0.425781 0.867188 -0.375 0.890625 -0.34375 C 0.910156 -0.3125 0.953125 -0.296875 1.015625 -0.296875 C 1.066406 -0.296875 1.117188 -0.304688 1.171875 -0.328125 L 1.28125 -0.03125 C 1.175781 0.03125 1.0625 0.0625 0.9375 0.0625 Z M 0.9375 0.0625 "/></g></g><g style="fill:#000000;fill-opacity:1;"><g transform="translate(97.021875, 20.171389)"><path style="stroke:none" d="M 2.265625 -2.484375 L 1.421875 0 L 0.90625 0 L 0.046875 -2.484375 L 0.515625 -2.484375 L 1.171875 -0.390625 L 1.8125 -2.484375 Z M 2.265625 -2.484375 "/></g></g><g style="fill:#000000;fill-opacity:1;"><g transform="translate(99.315283, 20.171389)"><path style="stroke:none" d="M 2.3125 -1.3125 C 2.3125 -1.238281 2.3125 -1.164062 2.3125 -1.09375 L 0.734375 -1.09375 C 0.742188 -0.820312 0.804688 -0.617188 0.921875 -0.484375 C 1.046875 -0.359375 1.203125 -0.296875 1.390625 -0.296875 C 1.515625 -0.296875 1.625 -0.3125 1.71875 -0.34375 C 1.820312 -0.382812 1.929688 -0.441406 2.046875 -0.515625 L 2.234375 -0.25 C 1.960938 -0.0390625 1.671875 0.0625 1.359375 0.0625 C 1.015625 0.0625 0.742188 -0.0507812 0.546875 -0.28125 C 0.359375 -0.507812 0.265625 -0.820312 0.265625 -1.21875 C 0.265625 -1.46875 0.304688 -1.691406 0.390625 -1.890625 C 0.472656 -2.097656 0.59375 -2.253906 0.75 -2.359375 C 0.90625 -2.472656 1.085938 -2.53125 1.296875 -2.53125 C 1.628906 -2.53125 1.878906 -2.421875 2.046875 -2.203125 C 2.222656 -1.992188 2.3125 -1.695312 2.3125 -1.3125 Z M 1.890625 -1.4375 C 1.890625 -1.6875 1.835938 -1.875 1.734375 -2 C 1.640625 -2.125 1.5 -2.1875 1.3125 -2.1875 C 0.957031 -2.1875 0.765625 -1.925781 0.734375 -1.40625 L 1.890625 -1.40625 Z M 1.890625 -1.4375 "/></g></g><g style="fill:#000000;fill-opacity:1;"><g transform="translate(101.876569, 20.171389)"><path style="stroke:none" d="M 2.359375 -3.46875 L 2.359375 0 L 1.984375 0 L 1.9375 -0.34375 C 1.851562 -0.21875 1.75 -0.117188 1.625 -0.046875 C 1.507812 0.0234375 1.378906 0.0625 1.234375 0.0625 C 0.929688 0.0625 0.695312 -0.0507812 0.53125 -0.28125 C 0.375 -0.519531 0.296875 -0.835938 0.296875 -1.234375 C 0.296875 -1.484375 0.332031 -1.707031 0.40625 -1.90625 C 0.488281 -2.101562 0.601562 -2.253906 0.75 -2.359375 C 0.894531 -2.472656 1.066406 -2.53125 1.265625 -2.53125 C 1.515625 -2.53125 1.738281 -2.429688 1.9375 -2.234375 L 1.9375 -3.53125 Z M 1.328125 -0.28125 C 1.453125 -0.28125 1.5625 -0.3125 1.65625 -0.375 C 1.75 -0.4375 1.84375 -0.53125 1.9375 -0.65625 L 1.9375 -1.859375 C 1.851562 -1.972656 1.765625 -2.054688 1.671875 -2.109375 C 1.578125 -2.160156 1.472656 -2.1875 1.359375 -2.1875 C 1.171875 -2.1875 1.019531 -2.109375 0.90625 -1.953125 C 0.800781 -1.796875 0.75 -1.554688 0.75 -1.234375 C 0.75 -0.910156 0.796875 -0.671875 0.890625 -0.515625 C 0.992188 -0.359375 1.140625 -0.28125 1.328125 -0.28125 Z M 1.328125 -0.28125 "/></g></g><g style="fill:#000000;fill-opacity:1;"><g transform="translate(104.68694, 20.171389)"><path style="stroke:none" d="M 1.375 -2.53125 C 1.726562 -2.53125 2 -2.414062 2.1875 -2.1875 C 2.382812 -1.957031 2.484375 -1.640625 2.484375 -1.234375 C 2.484375 -0.984375 2.4375 -0.757812 2.34375 -0.5625 C 2.257812 -0.363281 2.132812 -0.207031 1.96875 -0.09375 C 1.800781 0.0078125 1.601562 0.0625 1.375 0.0625 C 1.019531 0.0625 0.742188 -0.0507812 0.546875 -0.28125 C 0.359375 -0.519531 0.265625 -0.835938 0.265625 -1.234375 C 0.265625 -1.492188 0.304688 -1.71875 0.390625 -1.90625 C 0.484375 -2.101562 0.613281 -2.253906 0.78125 -2.359375 C 0.945312 -2.472656 1.144531 -2.53125 1.375 -2.53125 Z M 1.375 -2.1875 C 0.945312 -2.1875 0.734375 -1.867188 0.734375 -1.234375 C 0.734375 -0.609375 0.945312 -0.296875 1.375 -0.296875 C 1.800781 -0.296875 2.015625 -0.609375 2.015625 -1.234375 C 2.015625 -1.867188 1.800781 -2.1875 1.375 -2.1875 Z M 1.375 -2.1875 "/></g></g><g style="fill:#000000;fill-opacity:1;"><g transform="translate(107.431516, 20.171389)"><path style="stroke:none" d="M 1.53125 -2.53125 C 1.613281 -2.53125 1.691406 -2.519531 1.765625 -2.5 L 1.6875 -2.078125 C 1.613281 -2.097656 1.539062 -2.109375 1.46875 -2.109375 C 1.3125 -2.109375 1.1875 -2.050781 1.09375 -1.9375 C 1 -1.820312 0.925781 -1.648438 0.875 -1.421875 L 0.875 0 L 0.453125 0 L 0.453125 -2.484375 L 0.8125 -2.484375 L 0.859375 -1.96875 C 0.921875 -2.15625 1.007812 -2.296875 1.125 -2.390625 C 1.238281 -2.484375 1.375 -2.53125 1.53125 -2.53125 Z M 1.53125 -2.53125 "/></g></g><g style="fill:#000000;fill-opacity:1;"><g transform="translate(77.588984, 25.262601)"><path style="stroke:none" d="M 0.3125 0 L 0.3125 -3.265625 L 2.25 -3.265625 L 2.171875 -2.703125 L 1.078125 -2.703125 L 1.078125 -1.84375 L 2.03125 -1.84375 L 2.03125 -1.296875 L 1.078125 -1.296875 L 1.078125 0 Z M 0.3125 0 "/></g></g><g style="fill:#000000;fill-opacity:1;"><g transform="translate(79.713211, 25.262601)"><path style="stroke:none" d="M 1.640625 -2.5625 C 1.734375 -2.5625 1.816406 -2.550781 1.890625 -2.53125 L 1.78125 -1.8125 C 1.6875 -1.832031 1.609375 -1.84375 1.546875 -1.84375 C 1.398438 -1.84375 1.285156 -1.789062 1.203125 -1.6875 C 1.128906 -1.59375 1.070312 -1.441406 1.03125 -1.234375 L 1.03125 0 L 0.296875 0 L 0.296875 -2.5 L 0.9375 -2.5 L 1 -2.015625 C 1.0625 -2.179688 1.148438 -2.3125 1.265625 -2.40625 C 1.378906 -2.507812 1.503906 -2.5625 1.640625 -2.5625 Z M 1.640625 -2.5625 "/></g></g><g style="fill:#000000;fill-opacity:1;"><g transform="translate(81.456765, 25.262601)"><path style="stroke:none" d="M 1.375 -2.578125 C 1.757812 -2.578125 2.054688 -2.457031 2.265625 -2.21875 C 2.484375 -1.988281 2.59375 -1.664062 2.59375 -1.25 C 2.59375 -0.976562 2.539062 -0.742188 2.4375 -0.546875 C 2.34375 -0.347656 2.203125 -0.191406 2.015625 -0.078125 C 1.835938 0.0234375 1.625 0.078125 1.375 0.078125 C 0.988281 0.078125 0.6875 -0.0351562 0.46875 -0.265625 C 0.257812 -0.503906 0.15625 -0.832031 0.15625 -1.25 C 0.15625 -1.519531 0.203125 -1.753906 0.296875 -1.953125 C 0.398438 -2.148438 0.539062 -2.300781 0.71875 -2.40625 C 0.90625 -2.519531 1.125 -2.578125 1.375 -2.578125 Z M 1.375 -2.03125 C 1.21875 -2.03125 1.101562 -1.96875 1.03125 -1.84375 C 0.957031 -1.71875 0.921875 -1.519531 0.921875 -1.25 C 0.921875 -0.976562 0.957031 -0.78125 1.03125 -0.65625 C 1.101562 -0.53125 1.21875 -0.46875 1.375 -0.46875 C 1.519531 -0.46875 1.628906 -0.53125 1.703125 -0.65625 C 1.785156 -0.78125 1.828125 -0.976562 1.828125 -1.25 C 1.828125 -1.519531 1.789062 -1.71875 1.71875 -1.84375 C 1.644531 -1.96875 1.53125 -2.03125 1.375 -2.03125 Z M 1.375 -2.03125 "/></g></g><g style="fill:#000000;fill-opacity:1;"><g transform="translate(84.201342, 25.262601)"><path style="stroke:none" d="M 1.75 -2.578125 C 1.96875 -2.578125 2.140625 -2.507812 2.265625 -2.375 C 2.390625 -2.25 2.453125 -2.066406 2.453125 -1.828125 L 2.453125 0 L 1.703125 0 L 1.703125 -1.703125 C 1.703125 -1.828125 1.679688 -1.910156 1.640625 -1.953125 C 1.597656 -2.003906 1.539062 -2.03125 1.46875 -2.03125 C 1.3125 -2.03125 1.164062 -1.921875 1.03125 -1.703125 L 1.03125 0 L 0.296875 0 L 0.296875 -2.5 L 0.9375 -2.5 L 1 -2.203125 C 1.101562 -2.328125 1.21875 -2.421875 1.34375 -2.484375 C 1.46875 -2.546875 1.601562 -2.578125 1.75 -2.578125 Z M 1.75 -2.578125 "/></g></g><g style="fill:#000000;fill-opacity:1;"><g transform="translate(86.913015, 25.262601)"><path style="stroke:none" d="M 1.859375 -0.125 C 1.765625 -0.0625 1.65625 -0.015625 1.53125 0.015625 C 1.414062 0.0546875 1.300781 0.078125 1.1875 0.078125 C 0.632812 0.078125 0.359375 -0.222656 0.359375 -0.828125 L 0.359375 -1.984375 L 0.015625 -1.984375 L 0.015625 -2.5 L 0.359375 -2.5 L 0.359375 -3.03125 L 1.109375 -3.125 L 1.109375 -2.5 L 1.671875 -2.5 L 1.59375 -1.984375 L 1.109375 -1.984375 L 1.109375 -0.828125 C 1.109375 -0.710938 1.125 -0.628906 1.15625 -0.578125 C 1.195312 -0.535156 1.257812 -0.515625 1.34375 -0.515625 C 1.425781 -0.515625 1.515625 -0.539062 1.609375 -0.59375 Z M 1.859375 -0.125 "/></g></g><g style="fill:#000000;fill-opacity:1;"><g transform="translate(88.539085, 25.262601)"><path style="stroke:none" d="M 0.203125 -1.1875 L 0.203125 -1.765625 L 1.703125 -1.765625 L 1.703125 -1.1875 Z M 0.203125 -1.1875 "/></g></g><g style="fill:#000000;fill-opacity:1;"><g transform="translate(90.451827, 25.262601)"><path style="stroke:none" d="M 2.46875 -1.296875 C 2.46875 -1.191406 2.460938 -1.101562 2.453125 -1.03125 L 0.90625 -1.03125 C 0.925781 -0.820312 0.984375 -0.671875 1.078125 -0.578125 C 1.179688 -0.492188 1.316406 -0.453125 1.484375 -0.453125 C 1.578125 -0.453125 1.671875 -0.46875 1.765625 -0.5 C 1.859375 -0.539062 1.960938 -0.601562 2.078125 -0.6875 L 2.375 -0.265625 C 2.082031 -0.0351562 1.757812 0.078125 1.40625 0.078125 C 1 0.078125 0.6875 -0.0390625 0.46875 -0.28125 C 0.257812 -0.519531 0.15625 -0.835938 0.15625 -1.234375 C 0.15625 -1.492188 0.195312 -1.722656 0.28125 -1.921875 C 0.375 -2.117188 0.507812 -2.273438 0.6875 -2.390625 C 0.863281 -2.515625 1.070312 -2.578125 1.3125 -2.578125 C 1.675781 -2.578125 1.957031 -2.460938 2.15625 -2.234375 C 2.363281 -2.015625 2.46875 -1.703125 2.46875 -1.296875 Z M 1.734375 -1.515625 C 1.734375 -1.890625 1.597656 -2.078125 1.328125 -2.078125 C 1.203125 -2.078125 1.101562 -2.03125 1.03125 -1.9375 C 0.96875 -1.84375 0.925781 -1.691406 0.90625 -1.484375 L 1.734375 -1.484375 Z M 1.734375 -1.515625 "/></g></g><g style="fill:#000000;fill-opacity:1;"><g transform="translate(93.046016, 25.262601)"><path style="stroke:none" d="M 1.75 -2.578125 C 1.96875 -2.578125 2.140625 -2.507812 2.265625 -2.375 C 2.390625 -2.25 2.453125 -2.066406 2.453125 -1.828125 L 2.453125 0 L 1.703125 0 L 1.703125 -1.703125 C 1.703125 -1.828125 1.679688 -1.910156 1.640625 -1.953125 C 1.597656 -2.003906 1.539062 -2.03125 1.46875 -2.03125 C 1.3125 -2.03125 1.164062 -1.921875 1.03125 -1.703125 L 1.03125 0 L 0.296875 0 L 0.296875 -2.5 L 0.9375 -2.5 L 1 -2.203125 C 1.101562 -2.328125 1.21875 -2.421875 1.34375 -2.484375 C 1.46875 -2.546875 1.601562 -2.578125 1.75 -2.578125 Z M 1.75 -2.578125 "/></g></g><g style="fill:#000000;fill-opacity:1;"><g transform="translate(95.75769, 25.262601)"><path style="stroke:none" d="M 2.53125 -3.484375 L 2.53125 0 L 1.875 0 L 1.828125 -0.296875 C 1.660156 -0.046875 1.425781 0.078125 1.125 0.078125 C 0.8125 0.078125 0.570312 -0.0390625 0.40625 -0.28125 C 0.25 -0.519531 0.171875 -0.84375 0.171875 -1.25 C 0.171875 -1.507812 0.210938 -1.738281 0.296875 -1.9375 C 0.378906 -2.132812 0.5 -2.289062 0.65625 -2.40625 C 0.8125 -2.519531 0.988281 -2.578125 1.1875 -2.578125 C 1.425781 -2.578125 1.625 -2.5 1.78125 -2.34375 L 1.78125 -3.5625 Z M 1.359375 -0.46875 C 1.523438 -0.46875 1.664062 -0.5625 1.78125 -0.75 L 1.78125 -1.828125 C 1.726562 -1.898438 1.671875 -1.953125 1.609375 -1.984375 C 1.546875 -2.015625 1.472656 -2.03125 1.390625 -2.03125 C 1.253906 -2.03125 1.144531 -1.96875 1.0625 -1.84375 C 0.976562 -1.71875 0.9375 -1.519531 0.9375 -1.25 C 0.9375 -0.957031 0.972656 -0.753906 1.046875 -0.640625 C 1.117188 -0.523438 1.222656 -0.46875 1.359375 -0.46875 Z M 1.359375 -0.46875 "/></g></g></g></svg>