<svg xmlns="http://www.w3.org/2000/svg" xmlns:xlink="http://www.w3.org/1999/xlink" width="100" zoomAndPan="magnify" viewBox="0 0 75 30.000001" height="40" preserveAspectRatio="xMidYMid meet" version="1.2"><defs><clipPath id="e07a756535"><path d="M 1.210938 0 L 73.789062 0 L 73.789062 29.03125 L 1.210938 29.03125 Z M 1.210938 0 "/></clipPath><clipPath id="c2241b5b51"><path d="M 1.210938 5 L 15 5 L 15 23 L 1.210938 23 Z M 1.210938 5 "/></clipPath><clipPath id="aeeba83812"><path d="M 60 9 L 73.789062 9 L 73.789062 23 L 60 23 Z M 60 9 "/></clipPath></defs><g id="eb3ad4baec"><g clip-rule="nonzero" clip-path="url(#e07a756535)"><path style=" stroke:none;fill-rule:nonzero;fill:#ffffff;fill-opacity:1;" d="M 1.210938 0 L 73.789062 0 L 73.789062 29.03125 L 1.210938 29.03125 Z M 1.210938 0 "/><path style=" stroke:none;fill-rule:nonzero;fill:#ffffff;fill-opacity:1;" d="M 1.210938 0 L 73.789062 0 L 73.789062 29.03125 L 1.210938 29.03125 Z M 1.210938 0 "/></g><g clip-rule="nonzero" clip-path="url(#c2241b5b51)"><g style="fill:#000000;fill-opacity:1;"><g transform="translate(1.214801, 22.388173)"><path style="stroke:none" d="M 12.828125 -16.484375 L 12.453125 -13.5 L 8.375 -13.5 L 8.375 0 L 4.46875 0 L 4.46875 -13.5 L 0.21875 -13.5 L 0.21875 -16.484375 Z M 12.828125 -16.484375 "/></g></g></g><g style="fill:#000000;fill-opacity:1;"><g transform="translate(14.061604, 22.388173)"><path style="stroke:none" d="M 8.875 -13.046875 C 9.96875 -13.046875 10.820312 -12.710938 11.4375 -12.046875 C 12.0625 -11.378906 12.375 -10.441406 12.375 -9.234375 L 12.375 0 L 8.609375 0 L 8.609375 -8.59375 C 8.609375 -9.226562 8.503906 -9.664062 8.296875 -9.90625 C 8.097656 -10.15625 7.804688 -10.28125 7.421875 -10.28125 C 6.660156 -10.28125 5.929688 -9.738281 5.234375 -8.65625 L 5.234375 0 L 1.46875 0 L 1.46875 -17.65625 L 5.234375 -18.03125 L 5.234375 -11.28125 C 5.753906 -11.863281 6.304688 -12.300781 6.890625 -12.59375 C 7.484375 -12.894531 8.144531 -13.046875 8.875 -13.046875 Z M 8.875 -13.046875 "/></g></g><g style="fill:#000000;fill-opacity:1;"><g transform="translate(27.788651, 22.388173)"><path style="stroke:none" d="M 5.234375 -12.640625 L 5.234375 0 L 1.46875 0 L 1.46875 -12.640625 Z M 3.328125 -19.296875 C 3.984375 -19.296875 4.519531 -19.09375 4.9375 -18.6875 C 5.351562 -18.28125 5.5625 -17.769531 5.5625 -17.15625 C 5.5625 -16.539062 5.351562 -16.03125 4.9375 -15.625 C 4.519531 -15.21875 3.984375 -15.015625 3.328125 -15.015625 C 2.679688 -15.015625 2.148438 -15.21875 1.734375 -15.625 C 1.328125 -16.03125 1.125 -16.539062 1.125 -17.15625 C 1.125 -17.769531 1.328125 -18.28125 1.734375 -18.6875 C 2.148438 -19.09375 2.679688 -19.296875 3.328125 -19.296875 Z M 3.328125 -19.296875 "/></g></g><g style="fill:#000000;fill-opacity:1;"><g transform="translate(34.497532, 22.388173)"><path style="stroke:none" d="M 11.515625 -3.671875 C 11.515625 -3.191406 11.582031 -2.835938 11.71875 -2.609375 C 11.851562 -2.390625 12.070312 -2.226562 12.375 -2.125 L 11.59375 0.328125 C 10.8125 0.265625 10.175781 0.0976562 9.6875 -0.171875 C 9.195312 -0.453125 8.816406 -0.894531 8.546875 -1.5 C 7.722656 -0.226562 6.453125 0.40625 4.734375 0.40625 C 3.484375 0.40625 2.484375 0.0390625 1.734375 -0.6875 C 0.992188 -1.414062 0.625 -2.367188 0.625 -3.546875 C 0.625 -4.921875 1.128906 -5.972656 2.140625 -6.703125 C 3.160156 -7.441406 4.628906 -7.8125 6.546875 -7.8125 L 7.828125 -7.8125 L 7.828125 -8.359375 C 7.828125 -9.097656 7.664062 -9.601562 7.34375 -9.875 C 7.03125 -10.15625 6.476562 -10.296875 5.6875 -10.296875 C 5.269531 -10.296875 4.769531 -10.238281 4.1875 -10.125 C 3.601562 -10.007812 3 -9.847656 2.375 -9.640625 L 1.515625 -12.109375 C 2.316406 -12.410156 3.132812 -12.640625 3.96875 -12.796875 C 4.800781 -12.960938 5.570312 -13.046875 6.28125 -13.046875 C 8.09375 -13.046875 9.414062 -12.671875 10.25 -11.921875 C 11.09375 -11.171875 11.515625 -10.050781 11.515625 -8.5625 Z M 5.828125 -2.28125 C 6.679688 -2.28125 7.347656 -2.6875 7.828125 -3.5 L 7.828125 -5.734375 L 6.90625 -5.734375 C 6.039062 -5.734375 5.398438 -5.582031 4.984375 -5.28125 C 4.566406 -4.976562 4.359375 -4.507812 4.359375 -3.875 C 4.359375 -3.375 4.488281 -2.984375 4.75 -2.703125 C 5.007812 -2.421875 5.367188 -2.28125 5.828125 -2.28125 Z M 5.828125 -2.28125 "/></g></g><g style="fill:#000000;fill-opacity:1;"><g transform="translate(47.296719, 22.388173)"><path style="stroke:none" d="M 13.109375 -11.890625 C 12.285156 -11.566406 11.070312 -11.40625 9.46875 -11.40625 C 10.289062 -11.050781 10.890625 -10.617188 11.265625 -10.109375 C 11.648438 -9.609375 11.84375 -8.953125 11.84375 -8.140625 C 11.84375 -7.328125 11.628906 -6.597656 11.203125 -5.953125 C 10.773438 -5.316406 10.160156 -4.816406 9.359375 -4.453125 C 8.554688 -4.085938 7.617188 -3.90625 6.546875 -3.90625 C 6.035156 -3.90625 5.550781 -3.953125 5.09375 -4.046875 C 4.96875 -3.984375 4.867188 -3.882812 4.796875 -3.75 C 4.722656 -3.613281 4.6875 -3.472656 4.6875 -3.328125 C 4.6875 -3.085938 4.773438 -2.898438 4.953125 -2.765625 C 5.140625 -2.628906 5.507812 -2.5625 6.0625 -2.5625 L 7.96875 -2.5625 C 8.9375 -2.5625 9.785156 -2.40625 10.515625 -2.09375 C 11.242188 -1.78125 11.804688 -1.34375 12.203125 -0.78125 C 12.597656 -0.226562 12.796875 0.394531 12.796875 1.09375 C 12.796875 2.40625 12.226562 3.429688 11.09375 4.171875 C 9.96875 4.910156 8.332031 5.28125 6.1875 5.28125 C 4.644531 5.28125 3.429688 5.117188 2.546875 4.796875 C 1.660156 4.472656 1.035156 4.015625 0.671875 3.421875 C 0.316406 2.835938 0.140625 2.101562 0.140625 1.21875 L 3.515625 1.21875 C 3.515625 1.59375 3.585938 1.890625 3.734375 2.109375 C 3.890625 2.335938 4.164062 2.503906 4.5625 2.609375 C 4.957031 2.722656 5.53125 2.78125 6.28125 2.78125 C 7.3125 2.78125 8.023438 2.65625 8.421875 2.40625 C 8.816406 2.164062 9.015625 1.816406 9.015625 1.359375 C 9.015625 0.972656 8.863281 0.671875 8.5625 0.453125 C 8.257812 0.234375 7.804688 0.125 7.203125 0.125 L 5.375 0.125 C 4.070312 0.125 3.097656 -0.109375 2.453125 -0.578125 C 1.816406 -1.046875 1.5 -1.644531 1.5 -2.375 C 1.5 -2.832031 1.632812 -3.28125 1.90625 -3.71875 C 2.175781 -4.15625 2.539062 -4.519531 3 -4.8125 C 2.207031 -5.238281 1.628906 -5.738281 1.265625 -6.3125 C 0.910156 -6.894531 0.734375 -7.597656 0.734375 -8.421875 C 0.734375 -9.835938 1.238281 -10.960938 2.25 -11.796875 C 3.269531 -12.628906 4.613281 -13.046875 6.28125 -13.046875 C 7.550781 -13.015625 8.625 -13.140625 9.5 -13.421875 C 10.382812 -13.703125 11.296875 -14.125 12.234375 -14.6875 Z M 6.375 -10.5625 C 5.789062 -10.5625 5.328125 -10.375 4.984375 -10 C 4.640625 -9.632812 4.46875 -9.125 4.46875 -8.46875 C 4.46875 -7.789062 4.640625 -7.265625 4.984375 -6.890625 C 5.328125 -6.515625 5.789062 -6.328125 6.375 -6.328125 C 7 -6.328125 7.472656 -6.507812 7.796875 -6.875 C 8.117188 -7.238281 8.28125 -7.785156 8.28125 -8.515625 C 8.28125 -9.878906 7.644531 -10.5625 6.375 -10.5625 Z M 6.375 -10.5625 "/></g></g><g clip-rule="nonzero" clip-path="url(#aeeba83812)"><g style="fill:#000000;fill-opacity:1;"><g transform="translate(59.881755, 22.388173)"><path style="stroke:none" d="M 6.953125 -13.046875 C 8.890625 -13.046875 10.40625 -12.453125 11.5 -11.265625 C 12.59375 -10.085938 13.140625 -8.4375 13.140625 -6.3125 C 13.140625 -4.957031 12.890625 -3.773438 12.390625 -2.765625 C 11.890625 -1.765625 11.175781 -0.984375 10.25 -0.421875 C 9.320312 0.128906 8.222656 0.40625 6.953125 0.40625 C 5.023438 0.40625 3.507812 -0.179688 2.40625 -1.359375 C 1.3125 -2.546875 0.765625 -4.203125 0.765625 -6.328125 C 0.765625 -7.679688 1.015625 -8.859375 1.515625 -9.859375 C 2.015625 -10.867188 2.726562 -11.648438 3.65625 -12.203125 C 4.582031 -12.765625 5.679688 -13.046875 6.953125 -13.046875 Z M 6.953125 -10.28125 C 6.191406 -10.28125 5.617188 -9.957031 5.234375 -9.3125 C 4.859375 -8.675781 4.671875 -7.679688 4.671875 -6.328125 C 4.671875 -4.953125 4.851562 -3.945312 5.21875 -3.3125 C 5.59375 -2.675781 6.171875 -2.359375 6.953125 -2.359375 C 7.710938 -2.359375 8.28125 -2.675781 8.65625 -3.3125 C 9.039062 -3.957031 9.234375 -4.957031 9.234375 -6.3125 C 9.234375 -7.6875 9.046875 -8.691406 8.671875 -9.328125 C 8.296875 -9.960938 7.722656 -10.28125 6.953125 -10.28125 Z M 6.953125 -10.28125 "/></g></g></g></g></svg>